<svg id="a0b15c85-ea6e-4aa9-bfb4-ea3376cff412" data-name="Layer 1" xmlns="http://www.w3.org/2000/svg" xmlns:xlink="http://www.w3.org/1999/xlink" width="865.76" height="682.89" viewBox="0 0 865.76 682.89"><defs><clipPath id="ad932f70-528e-4446-b48f-6cd2576ff8d6"><path id="e0ceeec7-10f2-4f86-83cf-377c9fe215a9" data-name="SVGID" d="M155.08,229.28s-7.35-4.36-2.72-18c0,0,14.43.54,19.33,8.71C171.69,220,162.71,233.9,155.08,229.28Z" fill="#e3a281"/></clipPath></defs><g id="a7e7bb8e-1987-4311-9e9b-24886f93eb09" data-name="freepik--Plants--inject-33"><g id="f3894b71-97c6-4153-946e-ceeb5d763284" data-name="freepik--freepik--Plants--inject-32--inject-33"><path d="M511.89,545.28c-.07,0,1.54-5.19,1.68-5.5,1.61-3.64,6.92-9.76,11.32-9.28a5.28,5.28,0,0,1,4.55,5.93h0a3.33,3.33,0,0,1-.1.55c-.64,3.1-3.72,5.47-6.4,6.75C519.75,545.22,511.89,545.28,511.89,545.28Z" fill="#a30333"/><path d="M846.63,485.9c-3.2-1.4-8.42-7.27-8.43-7.28s4.91-2.24,5.24-2.36c3.84-1.19,11.86-1.28,14.44,2.41a5.27,5.27,0,0,1-1.47,7.32,2.72,2.72,0,0,1-.5.29C853.16,487.84,849.36,487.09,846.63,485.9Z" fill="#a30333"/><path d="M764.11,518.61c-2,1.42-3.84,2.79-5.43,4l-3-.82c2.06-1.54,4.48-3.26,7.12-5.11,1.55-1.08,3.23-2.2,5-3.33a50,50,0,0,1-2.07-5.55c-3,.16-8.44-1.6-9.14-1.82-.7,1.73-1.36,3.4-2,5-1.37,3.6-2.47,6.84-3.37,9.58l-2.56-.68c1-2.79,2.2-6.08,3.67-9.76.7-1.75,1.48-3.62,2.3-5.52-.64-.4-5.83-3.73-7.42-6.14-1.43-2.18-2.65-5.4-1.7-8a4.63,4.63,0,0,1,5.82-3h0l.46.17c3.54,1.7,4.68,8.68,4.21,12.16,0,.2-.58,2.4-.94,3.77.35-.8.65-1.53,1-2.32.71-1.6,1.45-3.13,2.22-4.82l1.28-2.41c.38-.78.92-1.61,1.39-2.43,1.11-1.89,2.33-3.73,3.61-5.56-1.38-.63-6.26-2.9-8-4.84s-3.43-4.94-2.91-7.68a4.66,4.66,0,0,1,5.3-3.9,1.94,1.94,0,0,1,.53.12c3.76,1.14,5.91,7.89,6,11.38,0,.22-.24,2.74-.4,4.12.78-1.1,1.55-2.2,2.37-3.27,2.37-3.15,4.85-6.25,7.32-9.34L777,469.8c-.5-.2-6.4-2.77-8.32-4.95-1.74-2-3.43-4.94-2.9-7.68a4.67,4.67,0,0,1,5.33-3.86,2,2,0,0,1,.52.12c3.76,1.13,5.91,7.89,6,11.38,0,.26-.35,3.84-.47,4.81,1.65-2.1,3.26-4.21,4.77-6.39a82.4,82.4,0,0,0,5.6-9c-.24-.06-6.4-2.73-8.37-5-1.74-2-3.43-4.92-2.9-7.68a4.66,4.66,0,0,1,5.32-3.84,2.78,2.78,0,0,1,.5.11c3.76,1.13,5.91,7.89,6,11.38,0,.23-.24,3-.4,4.31h.22a60,60,0,0,0,3.84-9.92c.58-1.89,1-3.72,1.41-5.51-1.19-.37-6.58-2.15-8.64-4s-3.95-4.52-3.72-7.3a4.63,4.63,0,0,1,4.86-4.41h.51c3.84.72,6.77,7.18,7.22,10.66v3.55c.16-.8.34-1.65.5-2.42.53-2.93.85-5.62,1.11-8,.14-1.37.24-2.63.31-3.76-1-1-4.84-5-5.8-7.49s-1.42-5.82,0-8.16a4.65,4.65,0,0,1,6.34-1.72l.06,0,.42.27c3.1,2.42,2.7,9.49,1.5,12.8-.08.28-2.25,4.54-2.31,4.49h0c0,1.11-.11,2.3-.23,3.6-.2,2.42-.5,5.12-.94,8.09a84.37,84.37,0,0,1-2,9.42,60.67,60.67,0,0,1-3.67,10.13V454c.79-.85,3.07-3.11,3.26-3.27,2.75-2.2,9.34-4.79,12.6-2.55a4.62,4.62,0,0,1,1.15,6.44l0,0-.31.4c-1.76,2.14-5.12,2.72-7.75,2.62-3-.12-8.67-3-9.12-3.24a84.78,84.78,0,0,1-5.57,9.47c-1.2,1.76-2.45,3.52-3.73,5.26.7-.71,1.28-1.28,1.43-1.41,2.74-2.19,9.33-4.8,12.6-2.56a4.65,4.65,0,0,1,1.13,6.47h0a4.31,4.31,0,0,1-.32.4c-1.76,2.15-5.12,2.74-7.68,2.64s-7.59-2.47-8.88-3.11c-.51.65-1,1.28-1.49,2-2.41,3.16-4.82,6.3-7.08,9.46-.79,1.12-1.51,2.27-2.29,3.36l1.28-1.28c2.74-2.19,9.33-4.8,12.6-2.56a4.66,4.66,0,0,1,1.13,6.47c-.1.14-.21.28-.32.41-1.76,2.14-5.12,2.73-7.68,2.56s-7.1-2.25-8.63-3c-.75,1.18-1.49,2.36-2.14,3.52-.42.78-.91,1.55-1.28,2.39l-1.2,2.45c-.72,1.6-1.45,3.18-2.1,4.74-.46,1.08-.88,2.12-1.28,3.15.77-1.11,2.35-3.26,2.56-3.43a18.17,18.17,0,0,1,7.85-4.62,5.65,5.65,0,0,1,.77-.69,4.63,4.63,0,0,1,6.51.7l0,0c.1.13.2.27.29.41,2,3.36-.9,9.81-3.2,12.46-.13.17-1.79,1.68-2.86,2.56.71-.46,1.39-.91,2.16-1.37,1.46-.93,2.93-1.82,4.51-2.76L778,507.2c.78-.45,1.67-.83,2.5-1.28,2-.95,4-1.82,6.1-2.64-.8-1.28-3.61-5.86-4-8.44s-.16-6,1.8-8a4.64,4.64,0,0,1,6.56-.26h0l.35.36c2.56,3,.61,9.84-1.28,12.79-.12.18-1.7,2.16-2.56,3.23,1.28-.5,2.49-1,3.77-1.45,3.7-1.28,7.49-2.56,11.26-3.74l3.46-1.15c-.3-.44-3.84-5.81-4.19-8.72-.38-2.56-.15-6,1.79-8a4.66,4.66,0,0,1,6.58-.26l.35.35c2.55,3,.61,9.85-1.28,12.79-.14.22-2.43,3.06-3,3.75,2.56-.85,5-1.72,7.49-2.66a85.69,85.69,0,0,0,9.64-4.44c-.14-.22-3.84-5.8-4.21-8.78-.38-2.56-.15-6,1.79-8a4.66,4.66,0,0,1,6.58-.26q.18.18.33.36c2.56,3,.62,9.85-1.28,12.79-.12.2-1.86,2.37-2.71,3.37l.14.18a57.84,57.84,0,0,0,8.74-6.16c1.51-1.27,2.89-2.55,4.21-3.83-.79-1-4.33-5.45-5-8.09s-.8-5.95.91-8.14a4.66,4.66,0,0,1,6.5-1,1.91,1.91,0,0,1,.38.31c2.85,2.73,1.69,9.72.16,12.87a34.91,34.91,0,0,1-1.92,3,22.14,22.14,0,0,0,1.75-1.74c2.06-2.12,3.84-4.22,5.36-6.07.87-1.08,1.64-2.05,2.33-3-.27-1.36-1.28-6.82-.7-9.44s2-5.64,4.55-6.82a4.69,4.69,0,0,1,6.25,2.12c.06.16.12.3.17.45,1.28,3.72-3,9.41-5.83,11.52-.23.18-4.37,2.55-4.39,2.48v-.08c-.65.91-1.39,1.87-2.17,2.89-1.51,1.91-3.23,4-5.29,6.22a82.71,82.71,0,0,1-6.87,6.76,61,61,0,0,1-8.68,6.39h-.11c1.12-.27,4.28-.91,4.53-.93,3.5-.31,10.44,1.16,11.95,4.77a4.63,4.63,0,0,1-2.61,6h0l-.49.17c-2.65.82-5.78-.55-7.91-2.07-2.39-1.74-5.56-7.31-5.82-7.74a85.53,85.53,0,0,1-9.86,4.81c-2,.8-4,1.6-6,2.33a12.9,12.9,0,0,1,2-.36c3.49-.31,10.44,1.16,12,4.77a4.63,4.63,0,0,1-2.62,6h0l-.49.17c-2.64.82-5.77-.55-7.9-2.09s-5-6.24-5.68-7.49l-2.34.83c-3.75,1.28-7.5,2.56-11.13,4-1.28.5-2.56,1-3.84,1.54l1.71-.33c3.49-.31,10.44,1.16,12,4.78a4.64,4.64,0,0,1-2.56,6l-.48.17c-2.65.81-5.79-.56-7.92-2.08s-4.7-5.77-5.54-7.28c-1.28.55-2.56,1.15-3.73,1.75-.8.43-1.61.79-2.4,1.28l-2.6,1.52c-1.46.93-3,1.88-4.36,2.82-1,.62-1.89,1.27-2.83,1.91,1.28-.55,3.84-1.42,4-1.48,3.42-.86,10.48-.43,12.54,2.9a4.65,4.65,0,0,1-1.63,6.37l-.06,0a3.17,3.17,0,0,1-.45.23c-2.55,1.22-5.8.33-8.13-.86-2.56-1.28-6.4-6.11-6.9-6.71C767,516.56,765.49,517.6,764.11,518.61Z" fill="#a30333"/><path d="M17.71,492.73c2.91-1.13,7.68-6.16,7.68-6.16s-4.29-2.17-4.57-2.29c-3.34-1.19-10.49-1.51-12.93,1.65a4.68,4.68,0,0,0,1,6.54l0,0a2.26,2.26,0,0,0,.42.26C11.84,494.23,15.26,493.74,17.71,492.73Z" fill="#a30333"/><path d="M66.89,451s-2.38-4.17-2.56-4.42c-2.12-2.82-7.9-7-11.66-5.75a4.69,4.69,0,0,0-2.76,6l0,0a2.76,2.76,0,0,0,.2.47c1.18,2.56,4.31,4,6.91,4.53C60.07,452.57,66.88,451,66.89,451Z" fill="#a30333"/><path d="M89.84,524.62c1.71,1.28,3.28,2.56,4.69,3.84l2.72-.63c-1.78-1.44-3.84-3.07-6.14-4.79-1.28-1-2.8-2.06-4.29-3.14a46.24,46.24,0,0,0,2.08-4.85c2.56.28,7.52-1.12,8.17-1.28.55,1.56,1.08,3.09,1.55,4.52,1.09,3.26,2,6.17,2.67,8.64l2.2-.52c-.75-2.48-1.72-5.47-2.92-8.79-.57-1.58-1.19-3.27-1.85-5,.58-.34,5.31-3.11,6.78-5.2,1.35-1.89,2.56-4.69,1.81-7a4.12,4.12,0,0,0-5.06-2.89l-.06,0-.42.14c-3.24,1.38-4.47,7.56-4.17,10.65,0,.18.42,2.15.71,3.39-.28-.7-.53-1.39-.83-2.09-.56-1.42-1.18-2.83-1.83-4.35l-1-2.18c-.35-.73-.77-1.47-1.15-2.21-.92-1.72-2-3.41-3-5.12,1.28-.49,5.68-2.33,7.28-4s3.21-4.26,2.88-6.71a4.14,4.14,0,0,0-4.6-3.61h0l-.42.08c-3.35.88-5.54,6.78-5.71,9.89,0,.21.12,2.44.21,3.67-.64-1-1.28-2-2-3-2-2.87-4.08-5.69-6.16-8.55L80,481c.45-.18,5.71-2.21,7.55-4.12,1.62-1.67,3.22-4.26,2.89-6.7a4.13,4.13,0,0,0-4.59-3.61,2.26,2.26,0,0,0-.44.08c-3.35.87-5.52,6.78-5.69,9.89,0,.24.17,3.48.26,4.28-1.4-1.91-2.77-3.83-4-5.8a73.28,73.28,0,0,1-4.66-8.29c.21,0,5.71-2.22,7.59-4.15,1.62-1.68,3.22-4.25,2.89-6.69a4.14,4.14,0,0,0-4.61-3.62l-.42.08c-3.35.87-5.54,6.78-5.7,9.9,0,.19.11,2.63.21,3.84H71.1a54.07,54.07,0,0,1-3.38-9c-.44-1.68-.76-3.33-1.06-4.92,1.08-.26,5.94-1.69,7.81-3.24s3.67-3.84,3.57-6.32a4.17,4.17,0,0,0-4.15-4h-.43c-3.43.51-6.26,6.14-6.75,9.2,0,.17-.12,1.91-.15,3.16-.12-.72-.26-1.47-.35-2.16-.38-2.56-.57-5-.71-7.18-.08-1.28-.12-2.32-.14-3.34.89-.84,4.46-4.25,5.4-6.4s1.47-5.11.24-7.25a4.14,4.14,0,0,0-5.59-1.7l-.37.22c-2.84,2-2.74,8.34-1.82,11.31,0,.25,1.84,4.12,1.83,4.08h.08v3.22c.1,2.14.24,4.57.56,7.2a73,73,0,0,0,1.46,8.44,53.1,53.1,0,0,0,2.93,9.08v.1c-.67-.73-2.56-2.86-2.78-3-2.37-2-8.16-4.58-11.1-2.75a4.1,4.1,0,0,0-1.3,5.66l0,0a3.18,3.18,0,0,0,.27.37c1.48,2,4.45,2.56,6.82,2.56,2.64,0,7.8-2.38,8.21-2.56a74.64,74.64,0,0,0,4.64,8.58c1,1.61,2.06,3.2,3.14,4.79-.42-.41-.82-.84-1.19-1.28-2.37-2.05-8.13-4.58-11.11-2.77a4.14,4.14,0,0,0-1.28,5.71h0l.27.37c1.49,2,4.45,2.56,6.82,2.56s6.81-1.94,8-2.47l1.28,1.82c2,2.89,4.07,5.75,6,8.63.67,1,1.27,2.05,1.94,3.11-.52-.57-1-1.06-1.06-1.12-2.37-2-8.16-4.57-11.09-2.75a4.12,4.12,0,0,0-1.3,5.68l0,0,.27.37c1.48,2,4.46,2.56,6.81,2.56s6.4-1.74,7.78-2.37c.62,1.08,1.28,2.14,1.77,3.2.36.73.75,1.42,1.07,2.17s.66,1.48,1,2.21c.56,1.42,1.16,2.89,1.69,4.28.37,1,.7,1.91,1.05,2.86-.67-1-2-3-2.13-3.14a16,16,0,0,0-6.93-4.42,4.9,4.9,0,0,0-.65-.64,4.14,4.14,0,0,0-5.84.41l-.27.34c-1.9,2.93.45,8.78,2.41,11.2.13.14,1.53,1.54,2.47,2.43-.63-.44-1.22-.87-1.87-1.35-1.28-.87-2.56-1.71-3.93-2.64L77.88,514c-.68-.45-1.44-.81-2.19-1.22-1.71-.91-3.49-1.77-5.31-2.56.79-1.07,3.42-5.12,3.84-7.37s.35-5.32-1.28-7.15a4.14,4.14,0,0,0-5.83-.47l-.32.3c-2.34,2.56-.88,8.73.67,11.39.1.17,1.44,2,2.21,3-1.1-.49-2.19-1-3.32-1.41-3.23-1.28-6.55-2.56-9.86-3.72l-3-1c.27-.39,3.54-5,4-7.67.42-2.28.35-5.33-1.28-7.14a4.11,4.11,0,0,0-5.61-.26,1.83,1.83,0,0,0-.32.3c-2.33,2.55-.9,8.72.67,11.38.12.21,2,2.8,2.56,3.43-2.22-.83-4.41-1.69-6.56-2.62a73.68,73.68,0,0,1-8.41-4.26c.13-.18,3.56-5,4.05-7.68.44-2.29.34-5.33-1.28-7.15a4.15,4.15,0,0,0-5.84-.47l-.32.3c-2.32,2.56-.88,8.72.68,11.39.1.17,1.58,2.15,2.3,3.07l-.14.15a54,54,0,0,1-7.54-5.75c-1.28-1.15-2.49-2.34-3.61-3.52.7-.83,4-4.68,4.73-7s.92-5.25-.52-7.24a4.12,4.12,0,0,0-5.72-1.13h0a2.33,2.33,0,0,0-.35.27c-2.56,2.33-1.85,8.57-.59,11.43a31.24,31.24,0,0,0,1.6,2.72c-.5-.52-1-1.07-1.5-1.6-1.75-2-3.23-3.84-4.54-5.59-.74-1-1.38-1.87-2-2.71.29-1.19,1.39-6,1-8.35s-1.61-5.12-3.84-6.22a4.13,4.13,0,0,0-5.61,1.66,2.87,2.87,0,0,0-.18.4c-1.28,3.26,2.31,8.45,4.76,10.44.21.16,3.84,2.42,3.84,2.35v-.06c.56.83,1.17,1.7,1.85,2.63,1.28,1.74,2.71,3.7,4.44,5.71a72.08,72.08,0,0,0,5.88,6.23,54,54,0,0,0,7.48,6h.1c-.95-.28-3.84-1-4-1-3.1-.4-9.3.67-10.79,3.84a4.14,4.14,0,0,0,2.1,5.45l.46.17c2.33.81,5.12-.31,7.1-1.56,2.19-1.46,5.2-6.29,5.44-6.67a73.26,73.26,0,0,0,8.6,4.62c1.71.79,3.47,1.55,5.24,2.26l-1.74-.41c-3.08-.39-9.3.67-10.77,3.84a4.13,4.13,0,0,0,2.09,5.44h0l.45.17c2.33.8,5.12-.31,7.09-1.58s4.62-5.37,5.31-6.46l2,.82c3.29,1.28,6.57,2.56,9.79,3.94,1.13.48,2.22,1,3.3,1.49-.75-.2-1.4-.34-1.51-.35-3.08-.4-9.29.67-10.77,3.84a4.13,4.13,0,0,0,2.11,5.45h0l.45.17c2.32.8,5.12-.31,7.1-1.58s4.35-5,5.12-6.27c1.11.55,2.2,1.1,3.25,1.69.7.41,1.4.76,2.06,1.22L79.29,517c1.28.87,2.56,1.75,3.84,2.67.85.6,1.65,1.19,2.44,1.79-1.1-.48-3.3-1.38-3.49-1.44-3-.86-9.29-.76-11.23,2.15a4.11,4.11,0,0,0,1.26,5.68h0l.39.22c2.17,1.15,5.12.49,7.25-.48,2.32-1.08,5.89-5.2,6.4-5.74C87.41,522.7,88.67,523.69,89.84,524.62Z" fill="#a30333"/></g></g><g id="af7f4632-de47-4221-9374-d1bba3885a52" data-name="freepik--background-simple--inject-33"><path d="M661,88.36c-75.57-44.78-176.11-29-246.91,24.7-50.65,38.39-97.67,83.16-155.47,109.62-44.45,20.3-95.17,30.08-128.36,68.65-51.88,60.39-45,145.5-9,212C163.11,580.48,239,615.15,323.58,626.14c84.28,11,173-1.64,247-45,98.52-57.8,151.34-168.28,170.16-277.62C754.84,221.13,737.53,133.66,661,88.36Z" fill="#e3a281"/><path d="M661,88.36c-75.57-44.78-176.11-29-246.91,24.7-50.65,38.39-97.67,83.16-155.47,109.62-44.45,20.3-95.17,30.08-128.36,68.65-51.88,60.39-45,145.5-9,212C163.11,580.48,239,615.15,323.58,626.14c84.28,11,173-1.64,247-45,98.52-57.8,151.34-168.28,170.16-277.62C754.84,221.13,737.53,133.66,661,88.36Z" fill="#fff" opacity="0.7" style="isolation:isolate"/></g><path d="M758.54,148.9V568.1a19.6,19.6,0,0,1-19.6,19.6H114.4a19.6,19.6,0,0,1-19.6-19.6h0v-420a19.6,19.6,0,0,1,18.57-18.76H739.94a19.61,19.61,0,0,1,18.58,18.76C758.53,148.31,758.54,148.62,758.54,148.9Z" fill="#fff"/><path d="M738.94,588.31H114.39A20.24,20.24,0,0,1,94.18,568.1v-420a20.12,20.12,0,0,1,19.16-19.37h626.6A20.13,20.13,0,0,1,759.13,148c0,.25,0,.57,0,.86V568.1A20.24,20.24,0,0,1,738.94,588.31ZM113.37,129.93a18.89,18.89,0,0,0-18,18.16v420a19,19,0,0,0,19,19H738.93a19,19,0,0,0,19-19V148.9c0-.27,0-.57,0-.8a18.89,18.89,0,0,0-18-18.17H113.37Z" fill="#a30333"/><path d="M758.52,148.07H94.82a19.6,19.6,0,0,1,18.58-18.76H739.94A19.61,19.61,0,0,1,758.52,148.07Z" fill="#e3a281"/><path d="M759.16,148.69h-665l0-.65a20.12,20.12,0,0,1,19.17-19.34H739.94A20.13,20.13,0,0,1,759.13,148ZM95.48,147.45H757.86a18.89,18.89,0,0,0-18-17.52H113.4A18.88,18.88,0,0,0,95.48,147.45Z" fill="#a30333"/><path d="M128.78,138.68a3.08,3.08,0,1,1-3.08-3.07h0a3.06,3.06,0,0,1,3.08,3Z" fill="#fff"/><path d="M140.88,138.68a3.07,3.07,0,1,1-3.07-3.07h0a3.05,3.05,0,0,1,3.07,3Z" fill="#fff"/><path d="M153,138.68a3.08,3.08,0,1,1-3.09-3.07h0a3.06,3.06,0,0,1,3.08,3Z" fill="#fff"/><circle cx="128.29" cy="336.03" r="15.75" fill="#fff"/><path d="M128.29,352.4A16.37,16.37,0,1,1,144.66,336,16.38,16.38,0,0,1,128.29,352.4Zm0-31.5A15.13,15.13,0,1,0,143.42,336,15.15,15.15,0,0,0,128.29,320.9Z" fill="#a30333"/><polygon points="130.8 344.02 122.61 336.07 130.76 326.33 131.71 327.13 124.3 335.99 131.66 343.14 130.8 344.02" fill="#a30333"/><path d="M448.18,540a8.06,8.06,0,0,0,1.52,6.24c2.28,3.06,4.37,3.44,4.37,3.44v13.44s-12,2.33-14.82.62c-1.93-1.16-1.85-7.24-1.6-11a3.52,3.52,0,0,1,3.24-3.29l3.84-.32S443.81,538.52,448.18,540Z" fill="#a30333"/><rect x="455.84" y="549.16" width="4.36" height="14.24" fill="#a30333"/><path d="M472.53,558.08v1.12a3,3,0,1,1-5.9.39,2.54,2.54,0,0,1,0-.39v-.35l1.78-.18v.41c0,1,.42,1.39,1.14,1.39s1.12-.42,1.12-1.28v-1.28c0-1-.42-1.39-1.39-1.39h-.73v-1.74h.66c1,0,1.4-.42,1.4-1.4v-.94a1,1,0,0,0-.83-1.1h-.22c-.67,0-1.05.38-1.05,1.28v.26h-1.85v-.29a2.86,2.86,0,1,1,5.71-.38,2.41,2.41,0,0,1,0,.38v.79a2.75,2.75,0,0,0-.91,3.77,2.87,2.87,0,0,0,1,1Z" fill="#a30333"/><path d="M474,559.27v-6.68a3,3,0,0,1,5.92,0v6.67a3,3,0,0,1-5.92,0Zm4.07,0v-6.68a1.11,1.11,0,0,0-1.11-1.12,1.13,1.13,0,0,0-1.12,1.11h0v6.67a1.12,1.12,0,0,0,2.23,0h0Z" fill="#a30333"/><path d="M487.8,557l-.7,1.34V562h-1.84V549.84h1.86v4.95l2.45-4.95h2L489,555l2.79,7h-2.1Z" fill="#a30333"/><path d="M520.63,571.15a8.1,8.1,0,0,1,1.52-6.24c2.28-3.07,4.38-3.44,4.38-3.44V548s-12-2.35-14.82-.63c-1.94,1.16-1.85,7.24-1.61,11a3.53,3.53,0,0,0,3.25,3.29l3.84.32S516.27,572.68,520.63,571.15Z" fill="#a30333"/><rect x="528.93" y="547.79" width="4.36" height="14.24" fill="#a30333"/><path d="M544.35,552.46h-2.1v-1.28a3.06,3.06,0,0,0,2.65-1.34h1.28V562h-1.84Z" fill="#a30333"/><path d="M549.89,560.27h3.66V562H547.7v-1.61l2.7-4.3a6.1,6.1,0,0,0,1.28-3.39c0-.85-.4-1.28-1.11-1.28s-1.11.47-1.11,1.28v.71h-1.78v-.57a2.79,2.79,0,0,1,2.9-3.2,2.74,2.74,0,0,1,2.95,2.51,2.79,2.79,0,0,1,0,.5,7.65,7.65,0,0,1-1.63,4.37Z" fill="#a30333"/><path d="M554.93,559.24v-.37l1.78-.18v.41c0,1,.42,1.36,1.1,1.36s1.1-.39,1.1-1.19v-2.84c0-.72-.38-1.08-1-1.08a1.12,1.12,0,0,0-1.16,1.07.66.66,0,0,0,0,.14v.21h-1.86v-7h5.28v1.74h-3.5v3a2,2,0,0,1,1.76-.88,2.17,2.17,0,0,1,2.22,2.13,1.82,1.82,0,0,1,0,.33v3.07a2.92,2.92,0,0,1-5.83.38v-.38Z" fill="#a30333"/><polygon points="293.66 563 293.66 553.61 298.44 553.61 305.74 546.51 305.74 568.76 299.7 562.62 293.66 563" fill="#a30333"/><path d="M312.84,557.71a7.08,7.08,0,0,1-4.43,6.57V551.07A7.08,7.08,0,0,1,312.84,557.71Z" fill="#a30333"/><path d="M308.53,569.23l-.29-1.2a10.69,10.69,0,0,0-.67-20.92l.22-1.22a11.93,11.93,0,0,1,.74,23.34Z" fill="#a30333"/><path d="M214.21,568.13h0a2.08,2.08,0,0,1-2.08-2.08h0V550.58a2.08,2.08,0,0,1,2.08-2.08h0a2.09,2.09,0,0,1,2.09,2.08h0v15.47a2.09,2.09,0,0,1-2.09,2.08Z" fill="#a30333"/><path d="M222.54,568.13h0a2.09,2.09,0,0,1-2.09-2.08h0V550.58a2.09,2.09,0,0,1,2.09-2.08h0a2.09,2.09,0,0,1,2.09,2.08h0v15.47a2.09,2.09,0,0,1-2.09,2.08Z" fill="#a30333"/><path d="M172.7,548.75h0a2.1,2.1,0,0,1,2.09,2.1v15.6a2.1,2.1,0,0,1-2.09,2.09h0a2.07,2.07,0,0,1-2.1-2.07V550.79A2.09,2.09,0,0,1,172.7,548.75Z" fill="#a30333"/><path d="M188.27,550.36v16.3a.86.86,0,0,1-.86.86.85.85,0,0,1-.53-.18l-10.79-8.55a.85.85,0,0,1-.17-1.2.65.65,0,0,1,.17-.16l10.79-7.81a.87.87,0,0,1,1.21.15A.9.9,0,0,1,188.27,550.36Z" fill="#a30333"/><path d="M263.82,567.66h0a2.11,2.11,0,0,1-2.07-2.12l.19-15.6a2.09,2.09,0,0,1,2.1-2.07h0a2.08,2.08,0,0,1,2.07,2.1v0l-.18,15.6A2.12,2.12,0,0,1,263.82,567.66Z" fill="#a30333"/><path d="M248.28,565.79l.19-16.35a.86.86,0,0,1,1.4-.65l10.69,8.67a.86.86,0,0,1,.16,1.21,1.14,1.14,0,0,1-.16.15l-10.89,7.68a.86.86,0,0,1-1.39-.71Z" fill="#a30333"/><rect x="163.18" y="505.06" width="387.56" height="26.57" rx="11.4" fill="#fff"/><path d="M539.34,532.25H174.58a12,12,0,0,1-12-12v-3.77a12,12,0,0,1,12-12H539.34a12,12,0,0,1,12,12v3.77A12,12,0,0,1,539.34,532.25ZM174.58,505.68a10.79,10.79,0,0,0-10.78,10.78v3.77A10.79,10.79,0,0,0,174.58,531H539.34a10.8,10.8,0,0,0,10.78-10.79v-3.77a10.8,10.8,0,0,0-10.78-10.78Z" fill="#a30333"/><path d="M538.16,518.3a3,3,0,0,1-2.93,3H180.17a3,3,0,1,1,0-6h355a3,3,0,0,1,3,3Z" fill="#a30333"/><path d="M269.93,515.32l-.21,6H180.17a3,3,0,1,1,0-6Z" fill="#e3a281"/><path d="M276.39,517.7a8.13,8.13,0,1,1-8.13-8.12,8.13,8.13,0,0,1,8.13,8.12Z" fill="#a30333"/><path d="M271.54,517.6a3.3,3.3,0,1,1-3.31-3.29h0A3.3,3.3,0,0,1,271.54,517.6Z" fill="#fff"/><path d="M565.17,212.79v251a18.89,18.89,0,0,1-18.87,18.87H182.05a18.87,18.87,0,0,1-18.87-18.87h0v-251a16.94,16.94,0,0,1,.23-2.93,18.88,18.88,0,0,1,18.64-15.94H546.23a18.91,18.91,0,0,1,18.64,15.94A18.08,18.08,0,0,1,565.17,212.79Z" fill="#fff"/><path d="M546.3,483.24H182.05a19.51,19.51,0,0,1-19.49-19.49v-251a17.12,17.12,0,0,1,.24-3,19.41,19.41,0,0,1,19.25-16.46H546.23a19.45,19.45,0,0,1,19.25,16.46,19.08,19.08,0,0,1,.3,3v251A19.53,19.53,0,0,1,546.3,483.24ZM182.05,194.54A18.18,18.18,0,0,0,164,210a15.73,15.73,0,0,0-.22,2.83v251A18.27,18.27,0,0,0,182.05,482H546.3a18.29,18.29,0,0,0,18.25-18.25v-251a17.86,17.86,0,0,0-.29-2.82,18.21,18.21,0,0,0-18-15.43Z" fill="#a30333"/><rect x="170.05" y="163.7" width="129.33" height="13.7" fill="#a30333"/><rect x="653.72" y="199.41" width="79.73" height="7.92" fill="#a30333"/><rect x="653.72" y="214.72" width="79.73" height="7.92" fill="#a30333"/><rect x="653.72" y="230.04" width="79.73" height="7.92" fill="#a30333"/><rect x="493.7" y="184.48" width="139.68" height="87.39" rx="11.4" opacity="0.1" style="isolation:isolate"/><rect x="503" y="177.75" width="139.68" height="87.39" rx="11.4" fill="#e3a281"/><path d="M631.28,265.76H514.4a12,12,0,0,1-12-12V189.15a12,12,0,0,1,12-12H631.28a12,12,0,0,1,12,12v64.59A12,12,0,0,1,631.28,265.76ZM514.4,178.37a10.79,10.79,0,0,0-10.78,10.78v64.59a10.79,10.79,0,0,0,10.78,10.78H631.28a10.78,10.78,0,0,0,10.78-10.78V189.15a10.78,10.78,0,0,0-10.78-10.78Z" fill="#a30333"/><circle cx="572.91" cy="221.85" r="29.57" fill="#fff"/><polygon points="564.51 238.93 564.51 206.28 590.46 222.6 564.51 238.93" fill="#a30333"/><rect x="653.72" y="315.11" width="79.73" height="7.92" fill="#a30333"/><rect x="653.72" y="330.42" width="79.73" height="7.92" fill="#a30333"/><rect x="653.72" y="345.73" width="79.73" height="7.92" fill="#a30333"/><rect x="493.7" y="297.88" width="139.68" height="87.39" rx="11.4" opacity="0.1" style="isolation:isolate"/><rect x="503" y="291.64" width="139.68" height="87.39" rx="11.4" fill="#e3a281"/><path d="M631.28,379.65H514.4a12,12,0,0,1-12-12V303a12,12,0,0,1,12-12H631.28a12,12,0,0,1,12,12v64.59A12,12,0,0,1,631.28,379.65ZM514.4,292.26A10.79,10.79,0,0,0,503.62,303v64.59a10.79,10.79,0,0,0,10.78,10.78H631.28a10.78,10.78,0,0,0,10.78-10.78V303a10.78,10.78,0,0,0-10.78-10.78Z" fill="#a30333"/><circle cx="572.9" cy="336.02" r="29.57" transform="translate(-84.44 241.03) rotate(-22.17)" fill="#fff"/><polygon points="564.51 353.11 564.51 320.46 590.46 336.79 564.51 353.11" fill="#a30333"/><rect x="653.72" y="428.15" width="79.73" height="7.92" fill="#a30333"/><rect x="653.72" y="443.46" width="79.73" height="7.92" fill="#a30333"/><rect x="653.72" y="458.77" width="79.73" height="7.92" fill="#a30333"/><rect x="493.7" y="410.62" width="139.68" height="87.39" rx="11.4" opacity="0.1" style="isolation:isolate"/><rect x="503" y="405.54" width="139.68" height="87.39" rx="11.4" fill="#e3a281"/><path d="M631.28,493.55H514.4a12,12,0,0,1-12-12V416.94a12,12,0,0,1,12-12H631.28a12,12,0,0,1,12,12v64.59A12,12,0,0,1,631.28,493.55ZM514.4,406.16a10.79,10.79,0,0,0-10.78,10.78v64.59a10.79,10.79,0,0,0,10.78,10.78H631.28a10.78,10.78,0,0,0,10.78-10.78V416.94a10.78,10.78,0,0,0-10.78-10.78Z" fill="#a30333"/><circle cx="572.89" cy="450.26" r="29.57" transform="translate(-128.11 251.43) rotate(-22.33)" fill="#fff"/><polygon points="564.51 467.31 564.51 434.64 590.46 450.97 564.51 467.31" fill="#a30333"/><path d="M333.94,483s.94-85.32-14.23-116.92c0,0-14.91-34.89,11-47l9.2,44.79,12,81.53,18.33,31,2.84,6.32Z" fill="#e3a281"/><path d="M333.94,483s.94-85.32-14.23-116.92c0,0-14.91-34.89,11-47l9.2,44.79,12,81.53,18.33,31,2.84,6.32Z" opacity="0.2"/><path d="M358.9,469.74s-19.59.32-19.59-29.71c0,0-3-30-7.48-55a68.88,68.88,0,0,0-2.5-9.79c-2.92-8.72-9.13-29.36-7.49-43.09a17.39,17.39,0,0,1,8.9-13.05c14.61-8.11,59.07-27.16,106.73,8.2,0,0,4.22,2.77,6.75,36.27,0,0,3.16,45.19,1.27,71.42Z" fill="#e3a281"/><path d="M358.9,469.74s-19.59.32-19.59-29.71c0,0-3-30-7.48-55a68.88,68.88,0,0,0-2.5-9.79c-2.92-8.72-9.13-29.36-7.49-43.09a17.39,17.39,0,0,1,8.9-13.05c14.61-8.11,59.07-27.16,106.73,8.2,0,0,4.22,2.77,6.75,36.27,0,0,3.16,45.19,1.27,71.42Z" fill="#fff" opacity="0.4"/><path d="M314.06,298.55s1.61,11.91,2.29,18.55c0,0,18.55-4.81,34.35-4.58l-33.2,23.35s-17.63.92-18.55-8c0,0,.32-11.15,3.7-17.72,0,0,4.09-4.72,2.94-6.55Z" fill="#f9b499"/><path d="M498.32,483,474,482.66l-53.54-23.78-12.71-22,15.07-4.54,60.44,30.86S507.94,472.68,498.32,483Z" fill="#a30333"/><path d="M498.32,483,474,482.66l-53.54-23.78-12.71-22,15.07-4.54,60.44,30.86S507.94,472.68,498.32,483Z" opacity="0.2"/><path d="M416.46,337.36s7.1-5.83,11.49,3.19a16.57,16.57,0,0,1,.82,2.12,353,353,0,0,1,13.64,60.85,41.89,41.89,0,0,1,.42,7.1,8.48,8.48,0,0,1-2.77,6c-9.85,8.9-19.61,2.09-19.61,1.59,0,0-.49-8.48,1.39-13.5l-4.48-16.27Z" fill="#e3a281"/><path d="M416.46,337.36s7.1-5.83,11.49,3.19a16.57,16.57,0,0,1,.82,2.12,353,353,0,0,1,13.64,60.85,41.89,41.89,0,0,1,.42,7.1,8.48,8.48,0,0,1-2.77,6c-9.85,8.9-19.61,2.09-19.61,1.59,0,0-.49-8.48,1.39-13.5l-4.48-16.27Z" opacity="0.2"/><path d="M343.1,313.52s-5.24,28,2.5,36c0,0-28.71,77.64,12.73,86.88,0,0-6.24,19.48-6.24,31.71a21.67,21.67,0,0,0,6.81,1.68l45.87-87.81L360.33,315S358.08,306.78,343.1,313.52Z" opacity="0.2"/><path d="M353.09,344.58s-9.45-3-5.07-11.76c0,0,4.84-4.84,1.38-8.3,0,0-5.76-8.3,1.62-10.84,0,0,5.76-1.15,3.91-8.29,0,0-5.53-7.38.7-11.76,0,0,9.68-3.46,8.07-14.06,0,0-3.23-5.31,7.6-12.22a21.54,21.54,0,0,0,7.15-5.54s12.22-10.37,26.28-.69c0,0,7.38-6,12.91,3.23a5.78,5.78,0,0,0,5.3,4.38s6.69.69,5.77,10.84c0,0-1.16,5.3,3.22,7.6,0,0,10.15,2.77,4.84,14.3,0,0-2.3,4.38.46,7.14,0,0,10.38,9.45.24,18.68,0,0-8.53,5.53-6.69,10.83,0,0,2.07,5.53-1.38,7.15l-12.94-7.91Z" fill="#a30333"/><polygon points="232.19 446.2 243.6 482.07 275.88 482.39 271.96 444.9 232.19 446.2" fill="#f9b499"/><polygon points="302.29 445.88 302.29 482.72 275.88 482.39 271.96 444.9 302.29 445.88" fill="#f7a48b"/><polygon points="281.09 445.23 281.75 482.72 275.88 482.39 271.96 444.9 281.09 445.23" fill="#f9b499"/><path d="M233.82,450.77l2,7.17s26.09-4.24,29.35,9.13l3.58,15.32h7.18L272,444.9l-39.77,1.3Z" fill="#f7a48b"/><path d="M302.78,449.06c-18.63,4.72-33.65,6.14-45.62,5.74-30.68-1-41.3-14-41.3-14a257.92,257.92,0,0,1,9.61-57.11l0-.08a212.9,212.9,0,0,1,8.69-24.3c0-.11.11-.22.15-.32,6.07-14,11.24-21.19,11.24-21.19,20,6.79,32.51,7,40.7,6.42,6.36-.46,10.78-2.11,11.66-2.69a.71.71,0,0,1,.36-.11c2,7.14,4.71,44.05,4.71,44.05l14.3,52.34C318.91,444.22,302.78,449.06,302.78,449.06Z" fill="#a30333"/><path d="M302.78,449.06c-18.63,4.72-33.65,6.14-45.62,5.74,45.13-7.7,46.06-25.81,46.06-25.81,5.81-15.55-9.36-23.78-9.36-23.78-11.05-7.12-.56-16.1-.56-16.1,4.86-4.88-1.69-23.41-1.69-23.41l-10.86,2.62-.57,11.61c1.13,20-8.42,21.16-8.42,21.16a61.32,61.32,0,0,1-45.13-10.49c-3.18-1.49-1.5-5.62-1.5-5.62.12-.44.23-.89.34-1.33l0-.08a163.43,163.43,0,0,1,8.69-24.3c0-.11.11-.22.15-.32.5-1.11.8-1.71.8-1.71l41-1.09c13.07-7.26,9.07-11.25,9.07-11.25.57-.07,1.12-.13,1.65-.21,7.24-1,10.35-2.62,11.18-3.14l.24-.17c2,7.14,4.71,44.05,4.71,44.05l14.3,52.34C318.91,444.22,302.78,449.06,302.78,449.06Z" opacity="0.2"/><path d="M305.59,303.59l8.47-5s-5.72-39.84-18.54-39.61Z" fill="#e3a281"/><path d="M253.94,256s-22.32,0-20.09,13.67c0,0,10,58.86,11.72,68.07,0,0,35.42,13.11,52.72,3.62a88,88,0,0,1,2.08-20.17,63.65,63.65,0,0,1,3.72-11.33C306.6,304,312,287,301.92,266.62c0,0-2.14-8.71-7.44-8.71l-8.46-.49Z" fill="#e3a281"/><path d="M305.82,276.8s2.56,21.08-5.88,22.17a18.39,18.39,0,0,0-2.12.36c-2.47.64-9.25,2.07-23.14,3.11,0,0-11.9.46-9.15,4.13,0,0-1.15,1.14,10.3,3.2,0,0,18.95.45,14.19,19.46-.22.92-1.9,9.31-12,15.49,0,0,12.5,1,20.24-3.34a85.25,85.25,0,0,1,.75-12.57,68.7,68.7,0,0,1,5.23-19.11C306.4,305,310.11,293.46,305.82,276.8Z" opacity="0.2"/><path d="M230.56,368s-7.34,17.58-2.32,19.7c0,0,6.57,8.5,36.9,9.47,0,0,5.6-21.64,6.38-28.78Z" fill="#e3a281"/><path d="M278.28,361.8a191.82,191.82,0,0,1-3.48,30.33s.19,5.6-9.66,5c0,0,5.41-22,6.38-28.78C271.52,368.37,274,366.06,278.28,361.8Z" fill="#e3a281"/><path d="M278.28,361.8a191.82,191.82,0,0,1-3.48,30.33s.19,5.6-9.66,5c0,0,5.41-22,6.38-28.78C271.52,368.37,274,366.06,278.28,361.8Z" opacity="0.2"/><path d="M420.56,299.77a34.63,34.63,0,0,1-1.81,11.16,29.24,29.24,0,0,1-2.34,5.23l-.19.34c-.38.64-.78,1.26-1.21,1.85a22.86,22.86,0,0,1-3.25,3.71l-.08.08a17.28,17.28,0,0,1-9.36,4.49h0a14.71,14.71,0,0,1-1.88.12c-5.78,0-11-3.27-14.66-8.49l-.06-.08a27.62,27.62,0,0,1-3.11-5.85,34.32,34.32,0,0,1-2.32-12.56c0-9.34,3.54-17.57,8.92-22.42h0c4.43-2.23,11-2.52,20.39,3.37a11.88,11.88,0,0,1,4.75-.48,27.07,27.07,0,0,1,3.07,5h0c.3.63.58,1.27.83,1.92A34.1,34.1,0,0,1,420.56,299.77Z" fill="#f9b499"/><path d="M427.89,359.42c-37-3.81-55.81,4.9-55.81,4.9l-5.72-25.05c15.79-3.27,20.42-7.9,20.42-7.9l-1.1-13.19.06.08c3.66,5.22,8.88,8.49,14.66,8.49a14.71,14.71,0,0,0,1.88-.12l.56,6.38c2.45,2.72,13.62,4.35,13.62,4.35C421.63,340.09,427.89,359.42,427.89,359.42Z" fill="#f9b499"/><path d="M402.57,329.06c-8,.41-16.34-4.9-16.34-4.9l-.49-5.9c3.66,5.22,8.88,8.49,14.66,8.49a14.91,14.91,0,0,0,1.9-.12h0Z" fill="#f7a48b"/><path d="M386.37,327l.41,4.35s11.71,4.09,16.06,1.64l-.27-3.27S395.22,331.37,386.37,327Z" fill="#e3a281"/><path d="M371.47,418.54c-4.24-4.24-10.76-2.66-14.26-1.35a6,6,0,0,0-3.87,6.43,8.94,8.94,0,0,0,2.57,4.7h0c-8.35-1.15-11.23-11.22-11.23-11.22-2.13-4.33-2.85-10.72-2.76-17.78.24-19.72,6.79-44.68,6.79-44.68,5.18-20.14,17.62-15.38,17.62-15.38a5.28,5.28,0,0,1,3.38,2.47c3,4.6,2.6,13.78,2.6,13.78C374.64,369.34,371.47,418.54,371.47,418.54Z" fill="#e3a281"/><path d="M371.47,418.54c-4.24-4.24-10.76-2.66-14.26-1.35a6,6,0,0,0-3.87,6.43,8.85,8.85,0,0,0,2.6,4.71c-8.35-1.15-11.23-11.22-11.23-11.22-2.13-4.33-2.85-10.72-2.76-17.78.63,3.24,4.07,17.72,14.56,14.9,0,0,8.49-2.29,11.74-19.37a57.15,57.15,0,0,0,1-10l.53-43.1c3,4.6,2.6,13.78,2.6,13.78C374.64,369.34,371.47,418.54,371.47,418.54Z" opacity="0.2"/><path d="M373.05,363.9s.44,18.1-1,44.86c0,0,36.84-6.9,49.79-4,0,0,1.73-11.51,4.32-16.4,0,0,6.92-15.81,1.73-28.91C427.89,359.42,402.57,352.61,373.05,363.9Z" fill="#e3a281"/><path d="M421.18,425.12s-14,12.89-37.76,11.44l-11.95-18,.58-9.78s33-7.35,49.79-4C421.84,404.73,419.12,415.2,421.18,425.12Z" fill="#f9b499"/><path d="M381.42,425.67s-10.16-10.89-3.81-14.16c0,0,3.27-3.63,18.7-6.35a182.23,182.23,0,0,0-24.26,3.6l-.58,9.78Z" fill="#f7a48b"/><path d="M365.23,434.67s-14.06,36.8-2,47.76l110.72.23s-5.26-6.35-9.07-8.17l-43.08-19.68s-17-13.9,1-22.43l-1.63-7.26S403.5,442.58,365.23,434.67Z" fill="#a30333"/><path d="M430.09,324.75s-6.92,2.31-4.38,8.3a21.61,21.61,0,0,1,.28,4.59s-3.72-4.63-9.53-.28c0,0-8.17-.91-13.62-4.35l-.54-6.38v-.07a17.25,17.25,0,0,0,9.38-4.42l.08-.08a22.47,22.47,0,0,0,4.46-5.56l.19-.34A33.64,33.64,0,0,0,420,305.51s1.86-7.7-1.78-18.35q-.24-.75-.54-1.53s-.1-.15-.29-.39h0c-1-1.21-4.29-4.6-8.83-1.65,0,0-7.29-5.83-15.41-3a13.72,13.72,0,0,0-9.1,12.67l-.27,10.5-1.21,8.61-.05.36s2.22,4.25,3,5.75l1.23,12.93a46.54,46.54,0,0,1-20.42,7.9s-2-1.19-6.12-.46c0,0,5.76-4.15,2.77-13.14,0,0-3.47-5.53,3.68-9.91,0,0,6-2.77,2.31-7.38,0,0-5.07-9,4.15-13.6,0,0,7.38-2.76,8.06-8.3,0,0,1.85-6.82,7.66-9.74h0c4.43-2.22,11.49-2.53,20.87,3.36a13.67,13.67,0,0,1,4.81-.37c2.67.32,5.5,2.3,6.88,7.06a8,8,0,0,1,0,4.55,4.48,4.48,0,0,0,1.52,5.29s3.69,2.07,2.77,10.83a7.3,7.3,0,0,0,3.23,7.61S434.93,321.75,430.09,324.75Z" fill="#a30333"/><path d="M430.09,324.75s-6.92,2.31-4.38,8.3a21.61,21.61,0,0,1,.28,4.59s-3.72-4.63-9.53-.28c0,0-8.17-.91-13.62-4.35l-.54-6.38v-.07a17.25,17.25,0,0,0,9.38-4.42l.08-.08a22.47,22.47,0,0,0,4.46-5.56l.19-.34A33.64,33.64,0,0,0,420,305.51s1.86-7.7-1.78-18.35q-.24-.75-.54-1.53s-.1-.15-.29-.39h0c-1-1.21-4.29-4.6-8.83-1.65,0,0-7.29-5.83-15.41-3a13.72,13.72,0,0,0-9.1,12.67l-.27,10.5-1.21,8.61-.05.36s2.22,4.25,3,5.75l1.23,12.93a46.54,46.54,0,0,1-20.42,7.9s-2-1.19-6.12-.46c0,0,5.76-4.15,2.77-13.14,0,0-3.47-5.53,3.68-9.91,0,0,6-2.77,2.31-7.38,0,0-5.07-9,4.15-13.6,0,0,7.38-2.76,8.06-8.3,0,0,1.85-6.82,7.66-9.74h0c4.43-2.22,11.49-2.53,20.87,3.36a13.67,13.67,0,0,1,4.81-.37c2.67.32,5.5,2.3,6.88,7.06a8,8,0,0,1,0,4.55,4.48,4.48,0,0,0,1.52,5.29s3.69,2.07,2.77,10.83a7.3,7.3,0,0,0,3.23,7.61S434.93,321.75,430.09,324.75Z" opacity="0.2"/><path d="M420.88,314.56a4.16,4.16,0,0,1-4.15,4.16,4.28,4.28,0,0,1-1.72-.37c.43-.59.83-1.21,1.21-1.85l.19-.34a29.77,29.77,0,0,0,2.21-5.21A4.26,4.26,0,0,1,420.88,314.56Z" fill="#e3a281"/><path d="M380.85,445.05s-3,12.43-15,13.72c0,0,6,12.86,24.44,23.58" fill="none" stroke="#fff" stroke-miterlimit="10"/><path d="M344.89,332.32l-.35-.53c.14-.09,3.31-2.25,1.64-7-.08-.14-2.75-4.74-1.43-8.79a7.25,7.25,0,0,1,4.33-4.4,5.69,5.69,0,0,0,3.45-2.81c.56-1.39.27-3.09-.88-5.05,0,0-4.29-6,1.69-11.82l5-4.33a14.14,14.14,0,0,0,4.86-9.59v-.17l.64,0,0,.17a14.75,14.75,0,0,1-5.07,10l-5,4.33c-5.56,5.44-1.75,10.78-1.58,11q1.89,3.27.92,5.64a6.1,6.1,0,0,1-3.82,3.16,6.62,6.62,0,0,0-3.93,4c-1.24,3.79,1.37,8.29,1.4,8.33C348.62,329.81,344.93,332.3,344.89,332.32Z" fill="#a30333"/><path d="M380.06,482.54s-14.49-2.25-20.73-24.47c0,0-4.35,15.27,3.94,24.36Z" opacity="0.2"/><path d="M432.75,340.08a4.22,4.22,0,0,1-.48-3.66,6,6,0,0,1,3.35-3.08c4.33-2.95,6.93-6.62,7.74-10.91,1.44-7.7-3.42-14.87-3.47-14.94-3.57-5.21-4.68-12.48-4.69-12.55l.63-.1c0,.08,1.1,7.2,4.58,12.29,0,.07,5.06,7.45,3.57,15.41-.84,4.48-3.54,8.3-8,11.35l-.07,0a5.61,5.61,0,0,0-3,2.72,3.65,3.65,0,0,0,.44,3.13Z" fill="#a30333"/><path d="M235,263.18s1.74-12.45,13-12.45c0,0-9.3-55.25,10.67-65.14,0,0,24.09-12.9,38,2.28a16.37,16.37,0,0,1,3.67,6.6c1.78,6.34,5.53,22.59,6.41,49.67l.33,27.37s-5-14.2-15.26-13.61l-5.77-.48s-7.69,1-6.7-7.81c0,0,10.34,3.83,18.68-8.38,0,0,8.82-11.39,4-30.2,0,0-4-14.58-15.6-16.52,0,0-17.64-4.8-22.39,21.35l-2,7.53.83,29.57L253.94,256S239.93,255.87,235,263.18Z" fill="#a30333"/><path d="M262,223.39l.83,29.57L253.94,256s2.78,8.86,10.37,13.37a14.68,14.68,0,0,0,16.39-.69c2.76-2.12,5.2-5.59,5.32-11.28,0,0-7.82,0-6.7-7.81l.56-23.15Z" fill="#f9b499"/><path d="M262,228.13l.55,15.9s9.49,8.09,16.46,7.53l.56-11.16L264,229Z" fill="#f7a48b"/><ellipse cx="283.37" cy="222.13" rx="20.22" ry="28.03" fill="#f9b499"/><path d="M298.77,240.26l1,20.33a14.39,14.39,0,0,0-6.58-2.68l-7.19-.49s-7.74,0-6.7-7.81C279.32,249.61,290.63,253.7,298.77,240.26Z" opacity="0.2"/><path d="M261.92,224.81l.94,28.15-6,2-.56-28.1s-4.23-10,9.11-17.76C265.43,209.12,264,212.17,261.92,224.81Z" opacity="0.2"/><path d="M300.74,207.63c-2.14-13.85-13.16-15-13.16-15-17.6-2.27-22,16.2-22,16.2s4.57-8,21.43-6.88C287.05,201.93,297.84,200.07,300.74,207.63Z" fill="#a30333"/><path d="M300.74,207.63c-2.14-13.85-13.16-15-13.16-15-17.6-2.27-22,16.2-22,16.2s4.57-8,21.43-6.88C287.05,201.93,297.84,200.07,300.74,207.63Z" opacity="0.4"/><ellipse cx="263.98" cy="222.41" rx="4.74" ry="6.56" fill="#f9b499"/><path d="M287,205.17h0c-.16-.25-3.69-5.42-8.56-2.06a8.38,8.38,0,0,0-3.52,6.93c0,5.87-1.26,18.12-12.83,13.35,0,0,3-2.51,3-9.5,0,0-.4-16.28,10.46-17.83C275.51,196.06,285,195.29,287,205.17Z" fill="#a30333"/><path d="M287,205.17h0c-.16-.25-3.69-5.42-8.56-2.06a8.38,8.38,0,0,0-3.52,6.93c0,5.87-1.26,18.12-12.83,13.35,0,0,3-2.51,3-9.5,0,0-.4-16.28,10.46-17.83C275.51,196.06,285,195.29,287,205.17Z" opacity="0.2"/><path d="M286.94,205.17c-.16-.25-3.69-5.42-8.56-2.06a8.38,8.38,0,0,0-3.52,6.93c0,5.87-1.26,18.12-12.83,13.35l.45-.1a11.8,11.8,0,0,0,9-10.22c.55-4.83,2.22-14.32,10.06-13.47C281.5,199.6,284,199.55,286.94,205.17Z" fill="#a30333"/><path d="M287,205.17s3.69-18.74,18-11.44c0,0,7.36,3.3,6.2,15.71,0,0-.77,9.88-7.56,12a38,38,0,0,0-3.88-16.29Z" fill="#a30333"/><path d="M287,205.17s3.69-18.74,18-11.44c0,0,7.36,3.3,6.2,15.71,0,0-.77,9.88-7.56,12a38,38,0,0,0-3.88-16.29Z" opacity="0.2"/><path d="M286.94,205.17s10.67-10.08,17.07-1.55c0,0,3.29,4.65-.78,12.6,0,0-1.13-6-3.18-9.8a2.28,2.28,0,0,0-2-1.18Z" fill="#a30333"/><path d="M212.37,286.43s15.07,1.95,17.86,14.5c0,0,21.75-22.87,15.62-36.26,0,0-5.3-9.76-15.35,1.12Z" fill="#e3a281"/><path d="M223.23,290.86s4.89,2.17,7,10.07c0,0,16.85-17.95,16.65-31.09C246.88,269.84,237.18,286,223.23,290.86Z" opacity="0.2"/><path d="M230.23,300.93c-21.51,27-28.32,25-28.32,25-12-1.09-51.73-54.73-51.73-54.73a113.52,113.52,0,0,1-13.34-10.35,22.32,22.32,0,0,1-3.09-5.78c-4-11.49,6.09-19,6.09-19,4.62-6.8,13.88,4.9,13.88,4.9,7.08-.27,11.17,25,11.17,25,11.35,9.46,30.2,30.64,35,36a1.26,1.26,0,0,0,2-.17c4.76-7.5,10.51-15.46,10.51-15.46,9,1.41,13.52,5.71,15.75,9.37.2.18.15.17.15.17.2.31.37.62.53.92A13.12,13.12,0,0,1,230.23,300.93Z" fill="#f9b499"/><path d="M230.23,300.93c-21.51,27-28.32,25-28.32,25-12-1.09-51.73-54.73-51.73-54.73a113.52,113.52,0,0,1-13.34-10.35,22.32,22.32,0,0,1-3.09-5.78c2.19,2.35,12.05,12.67,18.06,15.31,0,0,44.38,57.73,52.83,49,0,0,9.74-6.5,23.56-23.27h0l.12-.14.48.91a13.64,13.64,0,0,1,.79,1.77A14.54,14.54,0,0,1,230.23,300.93Z" fill="#f7a48b"/><path d="M230.56,368q1.16-2.89,2.41-5.86c.66-1.58,1.34-3.13,2-4.67,2.12,1.37,4.38,3,7.16,3.77,6,1.62,16.82,2.7,36.14.58,0,0-17,20.09-30.53,17.19C247.75,379,237.52,379.38,230.56,368Z" fill="#e3a281"/><path d="M230.56,368q1.16-2.89,2.41-5.86c.66-1.58,1.34-3.13,2-4.67,2.12,1.37,4.38,3,7.16,3.77,6,1.62,16.82,2.7,36.14.58,0,0-17,20.09-30.53,17.19C247.75,379,237.52,379.38,230.56,368Z" fill="#fff" opacity="0.4"/><path d="M299.19,346.17c-12.51,7.12-28.33,9.33-33.19,9.84a16.89,16.89,0,0,1-2.66.16c-20.18-.84-25.31-5.39-25.31-5.39l-3.1,6.61s6.19,8.29,37.23,5.29c0,0,17.06-.91,27.95-9.08-.14-1.55-.32-3.14-.55-4.79C299.44,347.92,299.33,347,299.19,346.17Z" fill="#e6e7e8"/><ellipse cx="379.16" cy="306.06" rx="5.17" ry="7.42" transform="translate(-97.31 204.02) rotate(-26.82)" fill="#f9b499"/><circle cx="380.93" cy="314.56" r="4.15" fill="#e3a281"/><path d="M465.83,479.76s-1.82,5.29-14.75-.84l-.4-.2-1.56-.78s-1-1.41-2.45-3.67l0,0c-3.22-5-8.71-13.95-10.95-20.81l-10.25-28.77-4.22-11.84a5.32,5.32,0,0,1,.28-4.26,9.16,9.16,0,0,1,2.68-3.12,10,10,0,0,1,10.49-.69,12.53,12.53,0,0,1,3.44,2.59,5.52,5.52,0,0,1,1.31,2.45l10.06,42.37S467.64,471.41,465.83,479.76Z" fill="#f9b499"/><path d="M451.08,478.92c-.06,0-.55-.23-.61-.22l-1.35-.76-2.45-3.67,0,0c-3.22-5-8.71-13.95-10.95-20.81l-10.25-28.77,12.21,31.61s14.82,1.76,18.4,13.49a7.08,7.08,0,0,1,.25,3.07C456,474.89,454.94,478.11,451.08,478.92Z" fill="#f7a48b"/><path d="M450.05,477.84c-16.12,4.89-34.83-9.79-34.83-9.79l-59.28-39.72h0a8.94,8.94,0,0,1-2.57-4.7,6,6,0,0,1,3.87-6.43c3.5-1.31,10-2.89,14.26,1.35l50.37,36.27a44.44,44.44,0,0,1,25.9,8.34C461.56,470.64,450.05,477.84,450.05,477.84Z" fill="#f9b499"/><path d="M153.72,241s-1.39,8,4.57,19.46" fill="none" stroke="#f7a48b" stroke-miterlimit="10"/><line x1="133.7" y1="246.53" x2="147.11" y2="260.94" fill="none" stroke="#f7a48b" stroke-miterlimit="10"/><line x1="135.43" y1="241.31" x2="151.58" y2="257.46" fill="none" stroke="#f7a48b" stroke-miterlimit="10"/><line x1="139.84" y1="236.08" x2="152.82" y2="251.5" fill="none" stroke="#f7a48b" stroke-miterlimit="10"/><path id="bef947d8-e70f-48dc-a89f-bb02a6a30975" data-name="SVGID" d="M155.08,229.28s-7.35-4.36-2.72-18c0,0,14.43.54,19.33,8.71C171.69,220,162.71,233.9,155.08,229.28Z" fill="#e3a281"/><g clip-path="url(#ad932f70-528e-4446-b48f-6cd2576ff8d6)"><path d="M146.91,219.2s11.71-3.54,21.24,7.9l-9.26,7.35-12-9Z" opacity="0.2"/></g><path d="M135.33,279.37a.92.92,0,0,1-.36-.07,1,1,0,0,1-.52-1.25l21.28-51.38a1,1,0,0,1,1.76.73l-21.28,51.38A.94.94,0,0,1,135.33,279.37Z" fill="#a30333"/></svg>